<svg width="439" height="95" viewBox="0 0 439 95" fill="none" xmlns="http://www.w3.org/2000/svg">
<rect x="8" y="7" width="151" height="75" fill="#5222D0"/>
<rect x="12" y="11" width="143" height="68" fill="white"/>
<g filter="url(#filter0_d_1_112)">
<path d="M4 82H162V82.2C162 83.8802 162 84.7202 161.673 85.362C161.385 85.9265 160.926 86.3854 160.362 86.673C159.72 87 158.88 87 157.2 87H8.8C7.11984 87 6.27976 87 5.63803 86.673C5.07354 86.3854 4.6146 85.9265 4.32698 85.362C4 84.7202 4 83.8802 4 82.2V82Z" fill="#5222D0"/>
</g>
<rect x="76" y="82" width="15" height="2" fill="white"/>
<g filter="url(#filter1_d_1_112)">
<rect x="174" y="7" width="4" height="80" fill="#5222D0"/>
</g>
<g filter="url(#filter2_d_1_112)">
<path d="M195.628 11.872H203.44C206.704 11.872 209.128 12.952 210.712 15.112C212.32 17.272 213.124 20.38 213.124 24.436C213.124 28.516 212.32 31.636 210.712 33.796C209.128 35.932 206.704 37 203.44 37H195.628V11.872ZM203.116 33.22C204.844 33.22 206.116 32.656 206.932 31.528C207.772 30.4 208.192 28.756 208.192 26.596V22.24C208.192 20.104 207.772 18.472 206.932 17.344C206.116 16.216 204.844 15.652 203.116 15.652H200.272V33.22H203.116ZM230.75 37L228.986 30.628H221.534L219.806 37H215.054L222.11 11.872H228.662L235.754 37H230.75ZM225.422 16.516H225.134L222.362 26.776H228.194L225.422 16.516ZM242.976 18.964H242.616V37H238.584V11.872H244.38L250.968 29.908H251.328V11.872H255.36V37H249.564L242.976 18.964ZM260.566 37V33.472H266.218V15.4H260.566V11.872H276.55V15.4H270.898V33.472H276.55V37H260.566ZM282.332 37V11.872H298.208V15.76H287.048V22.312H297.812V26.2H287.048V33.112H298.208V37H282.332ZM304.53 37V11.872H309.246V33.112H320.37V37H304.53ZM212.872 84H194.728V79.86L207.22 62.76H195.16V58.872H212.404V63.012L199.948 80.112H212.872V84ZM230.75 84L228.986 77.628H221.534L219.806 84H215.054L222.11 58.872H228.662L235.754 84H230.75ZM225.422 63.516H225.134L222.362 73.776H228.194L225.422 63.516ZM251.94 72.372L252.156 65.1H251.832L246.972 78.024L242.112 65.1H241.788L242.004 72.372V84H237.9V58.872H243.516L247.008 68.124H247.26L250.788 58.872H256.044V84H251.94V72.372ZM260.638 84V58.872H270.178C272.626 58.872 274.498 59.568 275.794 60.96C277.09 62.352 277.738 64.248 277.738 66.648C277.738 69.048 277.09 70.944 275.794 72.336C274.498 73.728 272.626 74.424 270.178 74.424H265.354V84H260.638ZM265.354 70.572H269.206C270.478 70.572 271.39 70.32 271.942 69.816C272.494 69.288 272.77 68.46 272.77 67.332V65.964C272.77 64.836 272.494 64.02 271.942 63.516C271.39 62.988 270.478 62.724 269.206 62.724H265.354V70.572ZM282.332 84V58.872H298.208V62.76H287.048V69.312H297.812V73.2H287.048V80.112H298.208V84H282.332ZM308.526 84H303.81V58.872H313.35C315.798 58.872 317.67 59.568 318.966 60.96C320.262 62.352 320.91 64.248 320.91 66.648C320.91 68.496 320.478 70.056 319.614 71.328C318.774 72.576 317.562 73.368 315.978 73.704L321.342 84H316.158L311.37 74.244H308.526V84ZM312.378 70.572C313.65 70.572 314.562 70.32 315.114 69.816C315.666 69.288 315.942 68.46 315.942 67.332V65.964C315.942 64.836 315.666 64.02 315.114 63.516C314.562 62.988 313.65 62.724 312.378 62.724H308.526V70.572H312.378ZM326.116 84V58.872H330.832V80.112H341.956V84H326.116ZM346.91 84V80.472H352.562V62.4H346.91V58.872H362.894V62.4H357.242V80.472H362.894V84H346.91ZM372.492 65.964H372.132V84H368.1V58.872H373.896L380.484 76.908H380.844V58.872H384.876V84H379.08L372.492 65.964ZM390.081 84V80.472H395.733V62.4H390.081V58.872H406.065V62.4H400.413V80.472H406.065V84H390.081Z" fill="#5222D0"/>
</g>
<path d="M25.36 49.08V47.16L32.24 43.384V45.336L27.216 48.056V48.184L32.24 50.904V52.856L25.36 49.08ZM34.8418 55.208L40.1058 40.84H41.9458L36.6818 55.208H34.8418ZM44.3555 41.832H47.8275C49.2782 41.832 50.3555 42.312 51.0595 43.272C51.7742 44.232 52.1315 45.6133 52.1315 47.416C52.1315 49.2293 51.7742 50.616 51.0595 51.576C50.3555 52.5253 49.2782 53 47.8275 53H44.3555V41.832ZM47.6835 51.32C48.4515 51.32 49.0168 51.0693 49.3795 50.568C49.7528 50.0667 49.9395 49.336 49.9395 48.376V46.44C49.9395 45.4907 49.7528 44.7653 49.3795 44.264C49.0168 43.7627 48.4515 43.512 47.6835 43.512H46.4195V51.32H47.6835ZM54.1093 53V41.832H61.1653V43.56H56.2053V46.472H60.9893V48.2H56.2053V51.272H61.1653V53H54.1093ZM65.703 53L62.647 41.832H64.951L66.343 47.48L67.159 51H67.271L68.103 47.48L69.511 41.832H71.703L68.647 53H65.703ZM73.2968 53V41.832H80.3528V43.56H75.3928V46.472H80.1768V48.2H75.3928V51.272H80.3528V53H73.2968ZM83.1625 53V41.832H85.2585V51.272H90.2025V53H83.1625ZM95.9563 53.192C95.2309 53.192 94.6016 53.064 94.0683 52.808C93.5349 52.5413 93.0923 52.1627 92.7403 51.672C92.3989 51.1813 92.1429 50.5787 91.9723 49.864C91.8123 49.1493 91.7323 48.3333 91.7323 47.416C91.7323 46.5093 91.8123 45.6987 91.9723 44.984C92.1429 44.2587 92.3989 43.6507 92.7403 43.16C93.0923 42.6693 93.5349 42.296 94.0683 42.04C94.6016 41.7733 95.2309 41.64 95.9563 41.64C97.4069 41.64 98.4736 42.1467 99.1562 43.16C99.8389 44.1733 100.18 45.592 100.18 47.416C100.18 49.24 99.8389 50.6587 99.1562 51.672C98.4736 52.6853 97.4069 53.192 95.9563 53.192ZM95.9563 51.48C96.3296 51.48 96.6443 51.4107 96.9003 51.272C97.1563 51.1227 97.3589 50.9147 97.5083 50.648C97.6683 50.3813 97.7803 50.056 97.8443 49.672C97.9189 49.2773 97.9563 48.84 97.9563 48.36V46.456C97.9563 45.496 97.8069 44.7387 97.5083 44.184C97.2203 43.6293 96.7029 43.352 95.9563 43.352C95.2096 43.352 94.6869 43.6293 94.3883 44.184C94.1003 44.7387 93.9563 45.496 93.9563 46.456V48.376C93.9563 49.336 94.1003 50.0933 94.3883 50.648C94.6869 51.2027 95.2096 51.48 95.9563 51.48ZM102.03 53V41.832H106.27C107.358 41.832 108.19 42.1413 108.766 42.76C109.342 43.3787 109.63 44.2213 109.63 45.288C109.63 46.3547 109.342 47.1973 108.766 47.816C108.19 48.4347 107.358 48.744 106.27 48.744H104.126V53H102.03ZM104.126 47.032H105.838C106.403 47.032 106.809 46.92 107.054 46.696C107.299 46.4613 107.422 46.0933 107.422 45.592V44.984C107.422 44.4827 107.299 44.12 107.054 43.896C106.809 43.6613 106.403 43.544 105.838 43.544H104.126V47.032ZM111.672 53V41.832H118.728V43.56H113.768V46.472H118.552V48.2H113.768V51.272H118.728V53H111.672ZM123.314 53H121.218V41.832H125.458C126.546 41.832 127.378 42.1413 127.954 42.76C128.53 43.3787 128.818 44.2213 128.818 45.288C128.818 46.1093 128.626 46.8027 128.242 47.368C127.868 47.9227 127.33 48.2747 126.626 48.424L129.01 53H126.706L124.578 48.664H123.314V53ZM125.026 47.032C125.591 47.032 125.996 46.92 126.242 46.696C126.487 46.4613 126.61 46.0933 126.61 45.592V44.984C126.61 44.4827 126.487 44.12 126.242 43.896C125.996 43.6613 125.591 43.544 125.026 43.544H123.314V47.032H125.026ZM130.891 50.904L135.915 48.184V48.056L130.891 45.336V43.384L137.771 47.16V49.08L130.891 52.856V50.904Z" fill="#5222D0"/>
<defs>
<filter id="filter0_d_1_112" x="0" y="82" width="166" height="13" filterUnits="userSpaceOnUse" color-interpolation-filters="sRGB">
<feFlood flood-opacity="0" result="BackgroundImageFix"/>
<feColorMatrix in="SourceAlpha" type="matrix" values="0 0 0 0 0 0 0 0 0 0 0 0 0 0 0 0 0 0 127 0" result="hardAlpha"/>
<feOffset dy="4"/>
<feGaussianBlur stdDeviation="2"/>
<feComposite in2="hardAlpha" operator="out"/>
<feColorMatrix type="matrix" values="0 0 0 0 0 0 0 0 0 0 0 0 0 0 0 0 0 0 0.25 0"/>
<feBlend mode="normal" in2="BackgroundImageFix" result="effect1_dropShadow_1_112"/>
<feBlend mode="normal" in="SourceGraphic" in2="effect1_dropShadow_1_112" result="shape"/>
</filter>
<filter id="filter1_d_1_112" x="170" y="7" width="12" height="88" filterUnits="userSpaceOnUse" color-interpolation-filters="sRGB">
<feFlood flood-opacity="0" result="BackgroundImageFix"/>
<feColorMatrix in="SourceAlpha" type="matrix" values="0 0 0 0 0 0 0 0 0 0 0 0 0 0 0 0 0 0 127 0" result="hardAlpha"/>
<feOffset dy="4"/>
<feGaussianBlur stdDeviation="2"/>
<feComposite in2="hardAlpha" operator="out"/>
<feColorMatrix type="matrix" values="0 0 0 0 0 0 0 0 0 0 0 0 0 0 0 0 0 0 0.25 0"/>
<feBlend mode="normal" in2="BackgroundImageFix" result="effect1_dropShadow_1_112"/>
<feBlend mode="normal" in="SourceGraphic" in2="effect1_dropShadow_1_112" result="shape"/>
</filter>
<filter id="filter2_d_1_112" x="190.728" y="11.872" width="219.337" height="80.128" filterUnits="userSpaceOnUse" color-interpolation-filters="sRGB">
<feFlood flood-opacity="0" result="BackgroundImageFix"/>
<feColorMatrix in="SourceAlpha" type="matrix" values="0 0 0 0 0 0 0 0 0 0 0 0 0 0 0 0 0 0 127 0" result="hardAlpha"/>
<feOffset dy="4"/>
<feGaussianBlur stdDeviation="2"/>
<feComposite in2="hardAlpha" operator="out"/>
<feColorMatrix type="matrix" values="0 0 0 0 0 0 0 0 0 0 0 0 0 0 0 0 0 0 0.25 0"/>
<feBlend mode="normal" in2="BackgroundImageFix" result="effect1_dropShadow_1_112"/>
<feBlend mode="normal" in="SourceGraphic" in2="effect1_dropShadow_1_112" result="shape"/>
</filter>
</defs>
</svg>
